<svg xmlns="http://www.w3.org/2000/svg" xmlns:xlink="http://www.w3.org/1999/xlink" width="500" zoomAndPan="magnify" viewBox="0 0 375 374.999991" height="500" preserveAspectRatio="xMidYMid meet" version="1.0"><defs><clipPath id="313f513a5a"><path d="M 187.5 0 C 291.054688 0 375 83.945312 375 187.5 C 375 291.054688 291.054688 375 187.5 375 C 83.945312 375 0 291.054688 0 187.5 C 0 83.945312 83.945312 0 187.5 0 L 187.5 48.75 C 110.871094 48.75 48.75 110.871094 48.75 187.5 C 48.75 264.128906 110.871094 326.25 187.5 326.25 C 264.128906 326.25 326.25 264.128906 326.25 187.5 C 326.25 110.871094 264.128906 48.75 187.5 48.75 L 187.5 0 " clip-rule="nonzero"/></clipPath><clipPath id="330440d1ef"><path d="M 187 1 L 375 1 L 375 219 L 187 219 Z M 187 1 " clip-rule="nonzero"/></clipPath><clipPath id="9d20c8e15d"><path d="M 215.515625 2.105469 C 309.925781 16.371094 378.535156 99.308594 374.859375 194.71875 C 374.527344 203.421875 369.574219 211.28125 361.871094 215.34375 C 354.167969 219.402344 344.882812 219.046875 337.511719 214.40625 C 330.144531 209.761719 325.8125 201.542969 326.148438 192.839844 C 328.867188 122.238281 278.097656 60.867188 208.234375 50.308594 C 199.621094 49.007812 192.359375 43.210938 189.179688 35.101562 C 186.003906 26.996094 187.390625 17.808594 192.824219 11 C 198.257812 4.195312 206.90625 0.804688 215.515625 2.105469 " clip-rule="nonzero"/></clipPath></defs><g clip-path="url(#313f513a5a)"><rect x="-37.5" width="450" fill="#41b8d5" y="-37.499999" height="449.999989" fill-opacity="1"/></g><g clip-path="url(#330440d1ef)"><g clip-path="url(#9d20c8e15d)"><rect x="-37.5" width="450" fill="#1a6d82" y="-37.499999" height="449.999989" fill-opacity="1"/></g></g></svg>